<svg width="28" height="22" viewBox="0 0 28 22" fill="none" xmlns="http://www.w3.org/2000/svg">
<path d="M8.65948 12.1111C10.991 12.1111 13.227 13.0476 14.8756 14.7146C15.1728 15.0151 15.4466 15.3349 15.6956 15.6711C17.5668 18.197 14.9203 21 11.7991 21H5.51985C2.3987 21 -0.247803 18.197 1.62334 15.6711C1.87239 15.3349 2.14612 15.0151 2.44332 14.7146C4.09195 13.0476 6.32797 12.1111 8.65948 12.1111ZM8.65948 12.1111C11.6939 12.1111 14.1538 9.62381 14.1538 6.55556C14.1538 3.48731 11.6939 1 8.65945 1C5.625 1 3.16509 3.48731 3.16509 6.55556C3.16509 9.62381 5.62503 12.1111 8.65948 12.1111ZM20.9103 21H22.4802C25.6013 21 28.2478 18.197 26.3767 15.6711C26.1276 15.3349 25.8539 15.0151 25.5567 14.7146C23.908 13.0476 21.672 12.1111 19.3405 12.1111C20.1226 12.1111 20.8957 11.9423 21.608 11.6159C22.3204 11.2895 22.9557 10.8132 23.4714 10.2186C23.987 9.62403 24.3712 8.92501 24.5983 8.16825C24.8253 7.4115 24.8899 6.61445 24.7878 5.83041C24.6858 5.04637 24.4193 4.2934 24.0063 3.62185C23.5933 2.95029 23.0433 2.37563 22.393 1.93628C21.7427 1.49693 21.0071 1.20302 20.2355 1.0742C19.4638 0.945385 18.6739 0.984625 17.9184 1.1893" stroke="#7B7C7D" stroke-width="2" stroke-linecap="round" stroke-linejoin="round"/>
</svg>
