<svg width="28" height="22" viewBox="0 0 28 22" fill="none" xmlns="http://www.w3.org/2000/svg">
<path d="M8.74516 12.1111C11.1028 12.1111 13.3638 13.0476 15.0309 14.7146C15.3314 15.0151 15.6082 15.3349 15.86 15.6711C17.7521 18.197 15.076 21 11.9199 21L5.57041 21C2.41435 21 -0.261761 18.197 1.63031 15.6711C1.88215 15.3349 2.15894 15.0151 2.45947 14.7146C4.12654 13.0476 6.38757 12.1111 8.74516 12.1111ZM8.74516 12.1111C11.8136 12.1111 14.301 9.62381 14.301 6.55556C14.301 3.48731 11.8135 1 8.74513 1C5.67674 1 3.18931 3.48731 3.18931 6.55556C3.18931 9.62381 5.67677 12.1111 8.74516 12.1111ZM19.8568 8.14286H27M21.2854 13.8571H27" stroke="#7B7C7D" stroke-width="2" stroke-linecap="round" stroke-linejoin="round"/>
</svg>
